<?xml version="1.0" encoding="UTF-8" standalone="no"?>
<!DOCTYPE svg PUBLIC "-//W3C//DTD SVG 1.1//EN" "http://www.w3.org/Graphics/SVG/1.1/DTD/svg11.dtd">
<svg width="100%" height="100%" viewBox="0 0 504 288" version="1.1" xmlns="http://www.w3.org/2000/svg" xmlns:xlink="http://www.w3.org/1999/xlink" xml:space="preserve" xmlns:serif="http://www.serif.com/" style="fill-rule:evenodd;clip-rule:evenodd;stroke-linecap:round;stroke-linejoin:round;stroke-miterlimit:10;">
    <g transform="matrix(1,0,0,1,0,84.5108)">
        <path d="M180.596,80.641C180.596,77.52 182.149,74.986 184.062,74.986C185.975,74.986 187.528,77.52 187.528,80.641C188.484,77.938 190.606,77.01 192.262,78.571C193.919,80.131 194.487,83.592 193.531,86.295C195.188,84.735 197.309,85.662 198.266,88.365C199.222,91.068 198.654,94.529 196.997,96.09C198.91,96.09 200.463,98.623 200.463,101.744C200.463,104.865 198.91,107.399 196.997,107.399C198.654,108.96 199.222,112.421 198.266,115.124C197.309,117.827 195.188,118.754 193.531,117.194C194.487,119.896 193.919,123.358 192.262,124.918C190.606,126.478 188.484,125.551 187.528,122.848C187.528,125.969 185.975,128.503 184.062,128.503C182.149,128.503 180.596,125.969 180.596,122.848C179.639,125.551 177.517,126.478 175.861,124.918C174.204,123.358 173.636,119.896 174.592,117.194C172.935,118.754 170.814,117.827 169.857,115.124C168.901,112.421 169.469,108.96 171.126,107.399C169.213,107.399 167.66,104.865 167.66,101.744C167.66,98.623 169.213,96.09 171.126,96.09C169.469,94.529 168.901,91.068 169.857,88.365C170.814,85.662 172.935,84.735 174.592,86.295C173.636,83.592 174.204,80.131 175.861,78.571C177.517,77.01 179.639,77.938 180.596,80.641Z" style="fill:rgb(205,221,172);stroke:black;stroke-width:0.24px;"/>
    </g>
    <g transform="matrix(1,0,0,1,0,99.8995)">
        <path d="M203.125,72.947C203.125,69.826 204.678,67.292 206.591,67.292C208.504,67.292 210.057,69.826 210.057,72.947C211.013,70.244 213.135,69.317 214.791,70.877C216.448,72.438 217.016,75.899 216.06,78.602C217.717,77.041 219.838,77.969 220.795,80.672C221.751,83.375 221.183,86.836 219.526,88.396C221.439,88.396 222.992,90.93 222.992,94.051C222.992,97.171 221.439,99.705 219.526,99.705C221.183,101.266 221.751,104.727 220.795,107.43C219.838,110.133 217.717,111.06 216.06,109.5C217.016,112.202 216.448,115.664 214.791,117.224C213.135,118.785 211.013,117.857 210.057,115.154C210.057,118.275 208.504,120.809 206.591,120.809C204.678,120.809 203.125,118.275 203.125,115.154C202.168,117.857 200.047,118.785 198.39,117.224C196.733,115.664 196.165,112.202 197.121,109.5C195.465,111.06 193.343,110.133 192.387,107.43C191.43,104.727 191.999,101.266 193.655,99.705C191.742,99.705 190.189,97.171 190.189,94.051C190.189,90.93 191.742,88.396 193.655,88.396C191.999,86.836 191.43,83.375 192.387,80.672C193.343,77.969 195.465,77.041 197.121,78.602C196.165,75.899 196.733,72.438 198.39,70.877C200.047,69.317 202.168,70.244 203.125,72.947Z" style="fill:rgb(205,221,172);stroke:black;stroke-width:0.24px;"/>
    </g>
    <g transform="matrix(1,0,0,1,0,94.0387)">
        <path d="M209.491,75.391C209.491,72.198 211.045,69.606 212.957,69.606C214.87,69.606 216.424,72.198 216.424,75.391C217.38,72.626 219.502,71.677 221.158,73.274C222.815,74.87 223.383,78.411 222.427,81.176C224.084,79.58 226.205,80.528 227.162,83.293C228.118,86.058 227.55,89.599 225.893,91.196C227.806,91.196 229.359,93.788 229.359,96.981C229.359,100.174 227.806,102.766 225.893,102.766C227.55,104.362 228.118,107.903 227.162,110.668C226.205,113.433 224.084,114.382 222.427,112.785C223.383,115.55 222.815,119.091 221.158,120.688C219.502,122.284 217.38,121.335 216.424,118.57C216.424,121.763 214.87,124.355 212.957,124.355C211.045,124.355 209.491,121.763 209.491,118.57C208.535,121.335 206.413,122.284 204.757,120.688C203.1,119.091 202.532,115.55 203.488,112.785C201.831,114.382 199.71,113.433 198.753,110.668C197.797,107.903 198.365,104.362 200.022,102.766C198.109,102.766 196.556,100.174 196.556,96.981C196.556,93.788 198.109,91.196 200.022,91.196C198.365,89.599 197.797,86.058 198.753,83.293C199.71,80.528 201.831,79.58 203.488,81.176C202.532,78.411 203.1,74.87 204.757,73.274C206.413,71.677 208.535,72.626 209.491,75.391Z" style="fill:rgb(205,221,172);stroke:black;stroke-width:0.24px;"/>
    </g>
    <g transform="matrix(1,0,0,1,0,151.08)">
        <path d="M220.958,48.117C222.434,45.367 225.092,43.918 226.889,44.883C228.687,45.848 228.948,48.864 227.472,51.614C229.649,49.715 232.082,49.968 232.901,52.178C233.719,54.389 232.617,57.725 230.44,59.624C232.735,59.085 234.29,60.972 233.91,63.836C233.531,66.7 231.36,69.463 229.065,70.002C230.863,70.967 231.124,73.983 229.648,76.733C228.172,79.483 225.514,80.932 223.717,79.967C224.536,82.178 223.433,85.514 221.256,87.413C219.079,89.312 216.647,89.059 215.828,86.849C215.448,89.713 213.277,92.476 210.982,93.015C208.688,93.554 207.132,91.667 207.512,88.803C206.036,91.553 203.378,93.002 201.58,92.037C199.783,91.073 199.521,88.057 200.997,85.307C198.82,87.206 196.388,86.953 195.569,84.742C194.75,82.532 195.853,79.195 198.03,77.296C195.735,77.836 194.18,75.948 194.559,73.084C194.939,70.221 197.11,67.458 199.405,66.918C197.607,65.953 197.346,62.937 198.822,60.188C200.298,57.438 202.955,55.988 204.753,56.953C203.934,54.743 205.037,51.406 207.214,49.507C209.391,47.608 211.823,47.861 212.642,50.072C213.021,47.208 215.192,44.445 217.487,43.905C219.782,43.366 221.337,45.253 220.958,48.117Z" style="fill:rgb(205,221,172);stroke:black;stroke-width:0.24px;"/>
    </g>
    <g transform="matrix(1,0,0,1,0,176.509)">
        <path d="M209.547,43.939C212.252,42.789 215.216,43.663 216.162,45.888C217.108,48.114 215.68,50.854 212.975,52.004C215.791,52.121 217.643,54.247 217.11,56.749C216.577,59.251 213.858,61.188 211.043,61.071C213.214,62.423 213.459,65.233 211.59,67.341C209.72,69.45 206.439,70.063 204.268,68.711C205.214,70.937 203.786,73.677 201.081,74.826C198.376,75.976 195.412,75.103 194.466,72.877C193.933,75.379 191.214,77.316 188.398,77.199C185.583,77.082 183.73,74.955 184.263,72.453C182.394,74.561 179.113,75.175 176.941,73.823C174.77,72.47 174.524,69.66 176.394,67.552C173.689,68.702 170.725,67.828 169.779,65.603C168.833,63.377 170.261,60.637 172.966,59.487C170.151,59.37 168.298,57.244 168.831,54.742C169.364,52.24 172.083,50.303 174.899,50.42C172.727,49.068 172.482,46.258 174.351,44.15C176.221,42.041 179.502,41.428 181.673,42.78C180.728,40.555 182.156,37.814 184.861,36.665C187.565,35.515 190.529,36.388 191.475,38.614C192.009,36.112 194.727,34.175 197.543,34.292C200.358,34.409 202.211,36.536 201.678,39.038C203.547,36.93 206.828,36.316 209,37.668C211.172,39.021 211.417,41.831 209.547,43.939Z" style="fill:rgb(205,221,172);stroke:black;stroke-width:0.24px;"/>
    </g>
    <g transform="matrix(1,0,0,1,0,129.296)">
        <path d="M167.41,121.807C187.272,112.012 199.059,96.2 199.059,79.352C199.059,62.504 187.272,46.692 167.41,36.897L167.41,121.807Z" style="fill:rgb(205,221,172);stroke:black;stroke-width:0.24px;"/>
    </g>
    <g transform="matrix(1,0,0,1,0,129.296)">
        <path d="M167.454,116.032C184.614,107.569 194.798,93.908 194.798,79.352C194.798,64.795 184.614,51.135 167.454,42.672L167.454,116.032Z" style="fill:rgb(235,235,235);stroke:black;stroke-width:0.24px;"/>
    </g>
    <g transform="matrix(1,0,0,1,0,117.434)">
        <rect x="195.081" y="55.331" width="26.596" height="59.904" style="fill:rgb(205,221,172);"/>
    </g>
    <g transform="matrix(1,0,0,1,0,106.676)">
        <rect x="217.993" y="85.627" width="8.87" height="10.07" style="fill:rgb(205,221,172);"/>
    </g>
    <g transform="matrix(1,0,0,1,0,180.06)">
        <rect x="207.363" y="50.225" width="12.174" height="7.489" style="fill:rgb(205,221,172);"/>
    </g>
    <g transform="matrix(-0.564403,-0.825499,-0.825499,0.564403,315.472,366.703)">
        <rect x="176.821" y="39.823" width="3.359" height="8.119" style="fill:rgb(205,221,172);"/>
    </g>
    <g transform="matrix(1,0,0,1,0,194.344)">
        <rect x="180.768" y="44.617" width="5.523" height="4.422" style="fill:rgb(205,221,172);"/>
    </g>
    <g transform="matrix(-0.743654,-0.668564,-0.668564,0.743654,364.326,322.633)">
        <rect x="186.041" y="46.261" width="5.523" height="12.537" style="fill:rgb(205,221,172);"/>
    </g>
    <g transform="matrix(-0.743654,-0.668564,-0.668564,0.743654,378.578,313.197)">
        <rect x="191.358" y="53.711" width="5.523" height="12.537" style="fill:rgb(205,221,172);"/>
    </g>
    <g transform="matrix(0.719028,-0.694982,-0.694982,-0.719028,127.005,388.395)">
        <rect x="184.904" y="90.364" width="5.522" height="33.023" style="fill:rgb(205,221,172);"/>
    </g>
    <g transform="matrix(0.87535,0.483489,0.483489,-0.87535,-29.1072,179.765)">
        <rect x="192.595" y="104.571" width="5.524" height="11.994" style="fill:rgb(205,221,172);"/>
    </g>
    <g transform="matrix(0.875274,0.483628,0.483628,-0.875274,-26.995,171.948)">
        <rect x="208.737" y="104.365" width="5.523" height="11.994" style="fill:rgb(205,221,172);"/>
    </g>
    <g transform="matrix(0.369479,0.929239,0.929239,-0.369479,92.1448,63.2596)">
        <rect x="211.517" y="44.189" width="0.325" height="0.563" style="fill:rgb(205,221,172);"/>
    </g>
    <g transform="matrix(0.50686,0.862029,0.862029,-0.50686,66.0845,83.133)">
        <rect x="211.964" y="44.39" width="0.272" height="0.569" style="fill:rgb(205,221,172);"/>
    </g>
    <g transform="matrix(0.278978,0.960297,0.960297,-0.278978,109.562,51.6962)">
        <rect x="211.718" y="44.699" width="0.849" height="0.985" style="fill:rgb(205,221,172);"/>
    </g>
    <g transform="matrix(-0.235401,0.971898,0.971898,0.235401,215.042,22.2149)">
        <rect x="209.307" y="46.941" width="5.522" height="2.728" style="fill:rgb(205,221,172);"/>
    </g>
    <g transform="matrix(1,0,0,1,0,-139.504)">
        <path d="M167.41,256.207C187.272,246.412 199.059,230.6 199.059,213.752C199.059,196.904 187.272,181.092 167.41,171.297L167.41,256.207Z" style="fill:rgb(205,221,172);stroke:black;stroke-width:0.24px;"/>
    </g>
    <g transform="matrix(1,0,0,1,0,-139.504)">
        <path d="M167.454,250.432C184.614,241.969 194.798,228.308 194.798,213.752C194.798,199.195 184.614,185.535 167.454,177.072L167.454,250.432Z" style="fill:rgb(235,235,235);stroke:black;stroke-width:0.24px;"/>
    </g>
    <g transform="matrix(1,0,0,1,0,41.9117)">
        <path d="M340.773,97.042C340.773,93.197 342.326,90.075 344.239,90.075C346.152,90.075 347.705,93.197 347.705,97.042C348.661,93.712 350.783,92.569 352.44,94.492C354.096,96.415 354.665,100.679 353.708,104.009C355.365,102.087 357.487,103.229 358.443,106.56C359.399,109.89 358.831,114.154 357.174,116.077C359.087,116.077 360.64,119.199 360.64,123.044C360.64,126.889 359.087,130.011 357.174,130.011C358.831,131.934 359.399,136.198 358.443,139.528C357.487,142.858 355.365,144.001 353.708,142.078C354.665,145.409 354.096,149.673 352.44,151.596C350.783,153.519 348.661,152.376 347.705,149.046C347.705,152.891 346.152,156.013 344.239,156.013C342.326,156.013 340.773,152.891 340.773,149.046C339.816,152.376 337.695,153.519 336.038,151.596C334.382,149.673 333.813,145.409 334.77,142.078C333.113,144.001 330.991,142.858 330.035,139.528C329.078,136.198 329.647,131.934 331.303,130.011C329.391,130.011 327.837,126.889 327.837,123.044C327.837,119.199 329.391,116.077 331.303,116.077C329.647,114.154 329.078,109.89 330.035,106.56C330.991,103.229 333.113,102.087 334.77,104.009C333.813,100.679 334.382,96.415 336.038,94.492C337.695,92.569 339.816,93.712 340.773,97.042Z" style="fill:rgb(205,221,172);stroke:black;stroke-width:0.24px;"/>
    </g>
    <g transform="matrix(1,0,0,1,0,26.9584)">
        <path d="M369.224,100.685C369.224,96.273 372.042,92.69 375.513,92.69C378.984,92.69 381.802,96.273 381.802,100.685C383.538,96.864 387.387,95.552 390.393,97.759C393.399,99.965 394.43,104.858 392.695,108.68C395.701,106.473 399.55,107.785 401.286,111.606C403.021,115.427 401.99,120.32 398.984,122.527C402.455,122.527 405.273,126.109 405.273,130.521C405.273,134.934 402.455,138.516 398.984,138.516C401.99,140.722 403.021,145.616 401.286,149.437C399.55,153.258 395.701,154.569 392.695,152.363C394.43,156.184 393.399,161.077 390.393,163.284C387.387,165.49 383.538,164.179 381.802,160.358C381.802,164.77 378.984,168.352 375.513,168.352C372.042,168.352 369.224,164.77 369.224,160.358C367.489,164.179 363.639,165.49 360.633,163.284C357.627,161.077 356.596,156.184 358.331,152.363C355.325,154.569 351.476,153.258 349.74,149.437C348.005,145.616 349.036,140.722 352.042,138.516C348.571,138.516 345.753,134.934 345.753,130.521C345.753,126.109 348.571,122.527 352.042,122.527C349.036,120.32 348.005,115.427 349.74,111.606C351.476,107.785 355.325,106.473 358.331,108.68C356.596,104.858 357.627,99.965 360.633,97.759C363.639,95.552 367.489,96.864 369.224,100.685Z" style="fill:rgb(205,221,172);stroke:black;stroke-width:0.24px;"/>
    </g>
    <g transform="matrix(1,0,0,1,0,221.893)">
        <path d="M401.591,9.908C403.201,6.907 406.892,5.751 409.829,7.326C412.765,8.902 413.841,12.618 412.23,15.619C415.093,13.808 418.828,14.664 420.566,17.529C422.303,20.394 421.389,24.19 418.527,26.001C421.875,25.865 424.652,28.505 424.726,31.891C424.799,35.278 422.14,38.138 418.792,38.273C421.728,39.849 422.805,43.565 421.194,46.565C419.584,49.566 415.892,50.723 412.956,49.147C414.694,52.012 413.78,55.808 410.917,57.619C408.054,59.429 404.319,58.573 402.582,55.708C402.655,59.095 399.997,61.954 396.649,62.09C393.301,62.226 390.523,59.586 390.45,56.2C388.839,59.2 385.148,60.357 382.212,58.781C379.275,57.205 378.199,53.49 379.81,50.489C376.947,52.3 373.212,51.444 371.475,48.578C369.737,45.713 370.651,41.917 373.514,40.107C370.166,40.242 367.388,37.603 367.315,34.216C367.241,30.829 369.9,27.97 373.248,27.834C370.312,26.258 369.236,22.543 370.846,19.542C372.457,16.542 376.148,15.385 379.084,16.961C377.347,14.096 378.26,10.299 381.123,8.489C383.986,6.678 387.721,7.534 389.458,10.399C389.385,7.013 392.044,4.153 395.392,4.017C398.74,3.882 401.517,6.521 401.591,9.908Z" style="fill:rgb(205,221,172);stroke:black;stroke-width:0.24px;"/>
    </g>
    <g transform="matrix(1,0,0,1,0,11.248)">
        <path d="M411.873,159.038C412.126,162.149 410.281,164.841 407.756,165.047C405.23,165.252 402.974,162.894 402.721,159.783C401.678,162.58 398.952,163.732 396.638,162.355C394.324,160.977 393.293,157.589 394.336,154.792C392.276,156.525 389.4,155.829 387.918,153.238C386.436,150.647 386.905,147.136 388.966,145.402C386.44,145.608 384.184,143.249 383.931,140.139C383.678,137.028 385.523,134.336 388.049,134.13C385.735,132.753 384.703,129.364 385.747,126.567C386.79,123.771 389.516,122.618 391.83,123.996C390.348,121.404 390.818,117.894 392.878,116.16C394.939,114.427 397.815,115.123 399.297,117.714C399.044,114.604 400.889,111.911 403.414,111.706C405.94,111.5 408.196,113.859 408.449,116.97C409.493,114.173 412.218,113.02 414.532,114.398C416.846,115.775 417.877,119.164 416.834,121.961C418.894,120.227 421.771,120.924 423.253,123.515C424.735,126.106 424.265,129.617 422.204,131.35C424.73,131.145 426.986,133.503 427.239,136.614C427.492,139.724 425.647,142.417 423.122,142.622C425.436,144 426.467,147.388 425.423,150.185C424.38,152.982 421.654,154.134 419.34,152.757C420.822,155.348 420.353,158.859 418.292,160.592C416.231,162.326 413.355,161.629 411.873,159.038Z" style="fill:rgb(205,221,172);stroke:black;stroke-width:0.24px;"/>
    </g>
    <g transform="matrix(1,0,0,1,0,67.6606)">
        <path d="M442.193,130.644C442.446,133.754 439.568,136.531 435.769,136.84C431.971,137.149 428.681,134.875 428.428,131.764C426.748,134.612 422.61,135.88 419.194,134.592C415.778,133.304 414.368,129.946 416.048,127.098C412.885,128.921 408.597,128.34 406.479,125.8C404.36,123.261 405.208,119.719 408.371,117.896C404.573,118.205 401.283,115.93 401.03,112.82C400.777,109.709 403.655,106.933 407.454,106.624C404.038,105.336 402.628,101.978 404.308,99.13C405.988,96.281 410.126,95.014 413.542,96.301C411.423,93.762 412.271,90.22 415.434,88.397C418.597,86.574 422.885,87.156 425.004,89.695C424.751,86.584 427.629,83.808 431.428,83.499C435.226,83.19 438.516,85.464 438.769,88.575C440.449,85.726 444.587,84.459 448.003,85.747C451.419,87.034 452.829,90.392 451.149,93.241C454.312,91.418 458.6,91.999 460.718,94.538C462.837,97.078 461.989,100.619 458.826,102.442C462.624,102.133 465.914,104.408 466.167,107.518C466.42,110.629 463.542,113.405 459.743,113.715C463.159,115.002 464.569,118.36 462.889,121.209C461.209,124.058 457.071,125.325 453.655,124.037C455.774,126.577 454.926,130.118 451.763,131.941C448.599,133.764 444.311,133.183 442.193,130.644Z" style="fill:rgb(205,221,172);stroke:black;stroke-width:0.24px;"/>
    </g>
    <g transform="matrix(1,0,0,1,0,135.649)">
        <path d="M456.955,96.65C457.208,99.76 454.33,102.537 450.531,102.846C446.732,103.155 443.443,100.88 443.19,97.77C441.51,100.618 437.372,101.886 433.956,100.598C430.54,99.31 429.13,95.952 430.81,93.104C427.647,94.927 423.359,94.346 421.241,91.806C419.122,89.267 419.97,85.725 423.133,83.902C419.335,84.211 416.045,81.937 415.792,78.826C415.539,75.716 418.417,72.939 422.216,72.63C418.799,71.342 417.39,67.984 419.07,65.136C420.75,62.287 424.887,61.02 428.304,62.308C426.185,59.768 427.033,56.227 430.196,54.404C433.359,52.581 437.647,53.162 439.766,55.701C439.513,52.591 442.391,49.814 446.19,49.505C449.988,49.196 453.278,51.47 453.531,54.581C455.211,51.732 459.349,50.465 462.765,51.753C466.181,53.04 467.591,56.398 465.911,59.247C469.074,57.424 473.362,58.005 475.48,60.545C477.599,63.084 476.751,66.626 473.588,68.449C477.386,68.14 480.676,70.414 480.929,73.525C481.182,76.635 478.304,79.412 474.505,79.721C477.921,81.009 479.331,84.367 477.651,87.215C475.971,90.064 471.833,91.331 468.417,90.043C470.536,92.582 469.688,96.124 466.524,97.947C463.361,99.77 459.073,99.189 456.955,96.65Z" style="fill:rgb(205,221,172);stroke:black;stroke-width:0.24px;"/>
    </g>
    <g transform="matrix(1,0,0,1,0,205.779)">
        <path d="M429.604,62.408C429.867,65.64 426.996,68.515 423.198,68.825C419.399,69.134 416.102,66.76 415.838,63.528C414.167,66.482 410.032,67.785 406.611,66.437C403.19,65.088 401.769,61.596 403.441,58.642C400.283,60.526 395.992,59.908 393.865,57.263C391.738,54.618 392.575,50.942 395.733,49.058C391.934,49.367 388.637,46.994 388.374,43.761C388.111,40.529 390.981,37.654 394.779,37.344C391.358,35.996 389.938,32.503 391.609,29.549C393.281,26.595 397.415,25.292 400.836,26.64C398.709,23.995 399.546,20.319 402.704,18.435C405.863,16.551 410.153,17.168 412.281,19.813C412.017,16.581 414.888,13.706 418.686,13.396C422.485,13.087 425.783,15.46 426.046,18.693C427.717,15.739 431.852,14.436 435.273,15.784C438.694,17.132 440.115,20.625 438.443,23.579C441.601,21.695 445.892,22.313 448.019,24.958C450.146,27.603 449.309,31.279 446.151,33.163C449.95,32.854 453.247,35.227 453.511,38.46C453.774,41.692 450.903,44.567 447.105,44.877C450.526,46.225 451.946,49.718 450.275,52.672C448.604,55.626 444.469,56.929 441.048,55.581C443.175,58.226 442.338,61.902 439.18,63.786C436.022,65.67 431.731,65.052 429.604,62.408Z" style="fill:rgb(205,221,172);stroke:black;stroke-width:0.24px;"/>
    </g>
    <g transform="matrix(1,0,0,1,0,225.019)">
        <path d="M371.989,18.594C374.944,17.338 378.182,18.292 379.215,20.723C380.248,23.154 378.688,26.147 375.733,27.403C378.809,27.531 380.833,29.854 380.25,32.587C379.668,35.32 376.698,37.436 373.623,37.308C375.995,38.785 376.263,41.854 374.22,44.158C372.178,46.461 368.594,47.131 366.222,45.654C367.255,48.085 365.695,51.078 362.74,52.334C359.786,53.59 356.548,52.636 355.515,50.205C354.932,52.938 351.962,55.053 348.887,54.925C345.811,54.797 343.787,52.475 344.37,49.741C342.327,52.044 338.743,52.715 336.371,51.237C333.999,49.76 333.731,46.691 335.773,44.388C332.819,45.644 329.581,44.689 328.548,42.258C327.514,39.827 329.074,36.834 332.029,35.578C328.954,35.45 326.93,33.127 327.512,30.394C328.095,27.661 331.064,25.546 334.14,25.674C331.768,24.196 331.5,21.127 333.542,18.824C335.584,16.52 339.168,15.85 341.541,17.328C340.507,14.897 342.067,11.903 345.022,10.647C347.977,9.391 351.215,10.345 352.248,12.776C352.83,10.043 355.8,7.928 358.876,8.056C361.951,8.184 363.975,10.507 363.393,13.24C365.435,10.937 369.019,10.266 371.391,11.744C373.764,13.221 374.031,16.29 371.989,18.594Z" style="fill:rgb(205,221,172);stroke:black;stroke-width:0.24px;"/>
    </g>
    <g transform="matrix(1,0,0,1,0,134.096)">
        <path d="M328.21,119.407C348.072,109.612 359.859,93.8 359.859,76.952C359.859,60.104 348.072,44.292 328.21,34.497L328.21,119.407Z" style="fill:rgb(205,221,172);stroke:black;stroke-width:0.24px;"/>
    </g>
    <g transform="matrix(1,0,0,1,0,129.296)">
        <path d="M328.254,116.032C345.414,107.569 355.598,93.908 355.598,79.352C355.598,64.795 345.414,51.135 328.254,42.672L328.254,116.032Z" style="fill:rgb(235,235,235);stroke:black;stroke-width:0.24px;"/>
    </g>
    <g transform="matrix(1,0,0,1,0,125.191)">
        <rect x="355.881" y="50.469" width="97.053" height="61.87" style="fill:rgb(205,221,172);"/>
    </g>
    <g transform="matrix(-0.872391,-0.488808,-0.488808,0.872391,768.941,409.228)">
        <rect x="381.485" y="31.449" width="37.618" height="16.614" style="fill:rgb(205,221,172);"/>
    </g>
    <g transform="matrix(-0.98188,0.189502,0.189502,0.98188,888.83,3.65712)">
        <rect x="452.626" y="97.752" width="10.765" height="3.852" style="fill:rgb(205,221,172);"/>
    </g>
    <g transform="matrix(0.403895,-0.914806,-0.914806,-0.403895,322.983,536.236)">
        <rect x="338.563" y="117.913" width="26.809" height="11.599" style="fill:rgb(205,221,172);"/>
    </g>
    <g transform="matrix(0.803813,0.594882,0.594882,-0.803813,-2.89345,66.6086)">
        <rect x="328.911" y="113.793" width="10.593" height="2.577" style="fill:rgb(205,221,172);"/>
    </g>
    <g transform="matrix(-0.955093,-0.296308,-0.296308,0.955093,889.577,318.131)">
        <rect x="445.303" y="50.198" width="3.538" height="4.295" style="fill:rgb(205,221,172);"/>
    </g>
    <g transform="matrix(-0.564462,-0.825459,-0.825459,0.564462,567.58,508.478)">
        <rect x="337.406" y="29.16" width="9.099" height="20.676" style="fill:rgb(205,221,172);"/>
    </g>
    <g transform="matrix(-0.743658,-0.66856,-0.66856,0.743658,669.185,443.663)">
        <rect x="349.837" y="36.211" width="29.196" height="28.497" style="fill:rgb(205,221,172);"/>
    </g>
    <g transform="matrix(0.719028,-0.694982,-0.694982,-0.719028,170.517,500.822)">
        <rect x="345.704" y="87.964" width="5.522" height="33.023" style="fill:rgb(205,221,172);"/>
    </g>
    <g transform="matrix(0.875301,0.483578,0.483578,-0.875301,-6.86369,103.134)">
        <rect x="349.4" y="99.745" width="11.24" height="11.994" style="fill:rgb(205,221,172);"/>
    </g>
    <g transform="matrix(0.875262,0.483649,0.483649,-0.875262,-23.2402,101.66)">
        <rect x="343.9" y="125.403" width="11.461" height="25.645" style="fill:rgb(205,221,172);"/>
    </g>
    <g transform="matrix(0.850193,0.526472,0.526472,-0.850193,-27.2402,80.2097)">
        <rect x="351.207" y="151.382" width="0.588" height="0.757" style="fill:rgb(205,221,172);"/>
    </g>
    <g transform="matrix(0.875286,0.483606,0.483606,-0.875286,-11.4522,79.9909)">
        <rect x="371.78" y="107.679" width="51.587" height="37.058" style="fill:rgb(205,221,172);"/>
    </g>
    <g transform="matrix(-0.76691,0.641754,0.641754,0.76691,686.817,-15.923)">
        <rect x="393.387" y="9.883" width="10.43" height="34.7" style="fill:rgb(205,221,172);"/>
    </g>
    <g transform="matrix(-0.977304,-0.211842,-0.211842,0.977304,818.9,343.641)">
        <rect x="411.622" y="15.159" width="1.618" height="1.776" style="fill:rgb(205,221,172);"/>
    </g>
    <g transform="matrix(-0.231251,-0.972894,-0.972894,0.231251,529.334,672.23)">
        <rect x="415.891" y="16.843" width="1.159" height="0.347" style="fill:rgb(205,221,172);"/>
    </g>
    <g transform="matrix(0.26829,-0.963338,-0.963338,-0.26829,319.108,674.535)">
        <rect x="413.862" y="16.514" width="0.281" height="0.56" style="fill:rgb(205,221,172);"/>
    </g>
    <g transform="matrix(-0.700659,-0.713496,-0.713496,0.700659,718.744,553.957)">
        <rect x="414.788" y="16.399" width="0.748" height="2.789" style="fill:rgb(205,221,172);"/>
    </g>
    <g transform="matrix(-0.986423,0.164225,0.164225,0.986423,823.516,184.191)">
        <rect x="415.675" y="16.421" width="0.748" height="2.883" style="fill:rgb(205,221,172);"/>
    </g>
    <g transform="matrix(-0.976165,0.21703,0.21703,0.976165,880.93,90.1282)">
        <rect x="450.904" y="49.747" width="0.853" height="1.632" style="fill:rgb(205,221,172);"/>
    </g>
    <g transform="matrix(-0.450409,0.892822,0.892822,0.450409,371.793,-178.817)">
        <rect x="329.2" y="117.798" width="0.75" height="2.359" style="fill:rgb(205,221,172);"/>
    </g>
    <g transform="matrix(0.802011,0.597309,0.597309,-0.802011,-13.9479,26.0641)">
        <rect x="384.627" y="142.671" width="7.027" height="18.674" style="fill:rgb(205,221,172);"/>
    </g>
    <g transform="matrix(-0.456274,0.889839,0.889839,0.456274,518.999,-90.9363)">
        <rect x="361.46" y="25.134" width="27.624" height="11.539" style="fill:rgb(205,221,172);"/>
    </g>
    <g transform="matrix(0.545228,0.838288,0.838288,-0.545228,120.918,-5.18147)">
        <rect x="329.733" y="33.014" width="1.879" height="4.263" style="fill:rgb(205,221,172);"/>
    </g>
    <g transform="matrix(1,0,0,1,0,-139.504)">
        <path d="M328.346,260.943C350.424,250.055 363.526,232.48 363.526,213.752C363.526,195.024 350.424,177.449 328.346,166.561L328.346,260.943Z" style="fill:rgb(205,221,172);stroke:black;stroke-width:0.24px;"/>
    </g>
    <g transform="matrix(1,0,0,1,0,-139.504)">
        <path d="M328.254,250.432C345.414,241.969 355.598,228.308 355.598,213.752C355.598,199.195 345.414,185.535 328.254,177.072L328.254,250.432Z" style="fill:rgb(235,235,235);stroke:black;stroke-width:0.24px;"/>
    </g>
    <g transform="matrix(1,0,0,1,0,5.252)">
        <path d="M29.739,178.054C46.9,169.591 57.083,155.93 57.083,141.374C57.083,126.817 46.9,113.156 29.739,104.694L29.739,178.054Z" style="fill:rgb(235,235,235);stroke:black;stroke-width:0.24px;"/>
    </g>
    <g transform="matrix(1,0,0,1,0,-83.285)">
        <path d="M118.06,177.524L116.012,169.881L137.957,176.602L122.313,193.396L120.265,185.754L90.377,193.762L92.425,201.404L89.275,189.647L86.125,177.89L88.172,185.532L118.06,177.524Z" style="fill:rgb(0,114,189);"/>
    </g>
    <g transform="matrix(1,0,0,1,0,98.3493)">
        <path d="M120.086,94.715L122.134,87.073L137.779,103.866L115.833,110.587L117.881,102.945L87.993,94.936L85.946,102.579L92.246,79.064L90.199,86.707L120.086,94.715Z" style="fill:rgb(189,0,3);"/>
    </g>
    <g transform="matrix(0.965926,-0.258819,0.258819,0.965926,0,0)">
        <g transform="matrix(0.960983,0,0,1,1.52609,0)">
            <text x="39.113px" y="108.109px" style="font-family:'HelveticaNeue', 'Helvetica Neue';font-size:10px;fill:rgb(0,114,189);">W<tspan x="47.804px 53.174px " y="108.109px 108.109px ">el</tspan>l passivated</text>
        </g>
        <g transform="matrix(0.960983,0,0,1,2.21337,0)">
            <text x="56.728px" y="118.109px" style="font-family:'HelveticaNeue', 'Helvetica Neue';font-size:10px;fill:rgb(0,114,189);">particle</text>
        </g>
    </g>
    <g transform="matrix(0.965926,0.258819,-0.258819,0.965926,0,0)">
        <g transform="matrix(0.960983,0,0,1,4.29007,0)">
            <text x="109.953px" y="143.356px" style="font-family:'HelveticaNeue', 'Helvetica Neue';font-size:10px;fill:rgb(189,0,3);">Poorly passivated</text>
        </g>
        <g transform="matrix(0.960983,0,0,1,5.16501,0)">
            <text x="132.378px" y="153.356px" style="font-family:'HelveticaNeue', 'Helvetica Neue';font-size:10px;fill:rgb(189,0,3);">particle</text>
        </g>
    </g>
    <g transform="matrix(0.960987,0,0,1,1.03281,0)">
        <text x="26.474px" y="13.784px" style="font-family:'HelveticaNeue-Bold', 'Helvetica Neue';font-weight:700;font-size:10px;">Pristine</text>
    </g>
    <g>
        <g transform="matrix(0.960987,0,0,1,13.0283,0)">
            <text x="333.948px" y="28.433px" style="font-family:'HelveticaNeue', 'Helvetica Neue';font-size:10px;">Compact</text>
        </g>
        <g transform="matrix(0.960987,0,0,1,13.5181,0)">
            <text x="346.503px" y="38.433px" style="font-family:'HelveticaNeue', 'Helvetica Neue';font-size:10px;">SEI</text>
        </g>
    </g>
    <g>
        <g transform="matrix(0.960987,0,0,1,6.53028,0)">
            <text x="167.388px" y="28.433px" style="font-family:'HelveticaNeue', 'Helvetica Neue';font-size:10px;">Compact</text>
        </g>
        <g transform="matrix(0.960987,0,0,1,7.0201,0)">
            <text x="179.943px" y="38.433px" style="font-family:'HelveticaNeue', 'Helvetica Neue';font-size:10px;">SEI</text>
        </g>
    </g>
    <g>
        <g transform="matrix(0.960987,0,0,1,13.5915,0)">
            <text x="348.385px" y="112.735px" style="font-family:'HelveticaNeue', 'Helvetica Neue';font-size:10px;">Li</text>
        </g>
        <g transform="matrix(0.960987,0,0,1,13.8832,0)">
            <text x="355.861px" y="116.065px" style="font-family:'HelveticaNeue', 'Helvetica Neue';font-size:5.83px;">2</text>
        </g>
        <g transform="matrix(0.960987,0,0,1,14.0047,0)">
            <text x="358.976px" y="112.735px" style="font-family:'HelveticaNeue', 'Helvetica Neue';font-size:10px;">CO</text>
        </g>
        <g transform="matrix(0.960987,0,0,1,14.5603,0)">
            <text x="373.218px" y="116.065px" style="font-family:'HelveticaNeue', 'Helvetica Neue';font-size:5.83px;">3</text>
        </g>
    </g>
    <g>
        <g transform="matrix(0.960987,0,0,1,14.2464,0)">
            <text x="365.173px" y="73.229px" style="font-family:'HelveticaNeue', 'Helvetica Neue';font-size:10px;">LiOH</text>
        </g>
        <g transform="matrix(0.960987,0,0,1,14.1726,0)">
            <text x="363.282px" y="90.459px" style="font-family:'HelveticaNeue', 'Helvetica Neue';font-size:10px;">Li</text>
        </g>
        <g transform="matrix(0.960987,0,0,1,14.4643,0)">
            <text x="370.758px" y="93.789px" style="font-family:'HelveticaNeue', 'Helvetica Neue';font-size:5.83px;">2</text>
        </g>
        <g transform="matrix(0.960987,0,0,1,14.5859,0)">
            <text x="373.873px" y="90.459px" style="font-family:'HelveticaNeue', 'Helvetica Neue';font-size:10px;">O</text>
        </g>
    </g>
    <g>
        <g transform="matrix(0.960987,0,0,1,13.9779,0)">
            <text x="358.29px" y="51.882px" style="font-family:'HelveticaNeue', 'Helvetica Neue';font-size:10px;">Li</text>
        </g>
        <g transform="matrix(0.960987,0,0,1,14.2696,0)">
            <text x="365.766px" y="55.212px" style="font-family:'HelveticaNeue', 'Helvetica Neue';font-size:5.83px;">2</text>
        </g>
        <g transform="matrix(0.960987,0,0,1,14.3911,0)">
            <text x="368.881px" y="51.882px" style="font-family:'HelveticaNeue', 'Helvetica Neue';font-size:10px;">O</text>
        </g>
    </g>
    <g>
        <g transform="matrix(0.960987,0,0,1,7.13873,0)">
            <text x="182.984px" y="181.067px" style="font-family:'HelveticaNeue', 'Helvetica Neue';font-size:10px;">Extended</text>
        </g>
        <g transform="matrix(0.960987,0,0,1,7.65273,0)">
            <text x="196.159px" y="191.067px" style="font-family:'HelveticaNeue', 'Helvetica Neue';font-size:10px;">SEI</text>
        </g>
    </g>
    <g>
        <g transform="matrix(0.960987,0,0,1,14.8165,0)">
            <text x="379.784px" y="202.667px" style="font-family:'HelveticaNeue', 'Helvetica Neue';font-size:10px;">Extended</text>
        </g>
        <g transform="matrix(0.960987,0,0,1,15.3305,0)">
            <text x="392.959px" y="212.667px" style="font-family:'HelveticaNeue', 'Helvetica Neue';font-size:10px;">SEI</text>
        </g>
    </g>
    <g>
        <g transform="matrix(0.960987,0,0,1,7.23614,0)">
            <text x="185.481px" y="13.784px" style="font-family:'HelveticaNeue-Bold', 'Helvetica Neue';font-weight:700;font-size:10px;">1</text>
        </g>
        <g transform="matrix(0.960987,0,0,1,7.44461,0)">
            <text x="190.825px" y="10.454px" style="font-family:'HelveticaNeue-Bold', 'Helvetica Neue';font-weight:700;font-size:5.83px;">st</text>
        </g>
        <g transform="matrix(0.960987,0,0,1,7.63895,0)">
            <text x="198.587px" y="13.784px" style="font-family:'HelveticaNeue-Bold', 'Helvetica Neue';font-weight:700;font-size:10px;">cycle</text>
        </g>
    </g>
    <g transform="matrix(0.960987,0,0,1,15.0154,0)">
        <text x="384.883px" y="13.784px" style="font-family:'HelveticaNeue-Bold', 'Helvetica Neue';font-weight:700;font-size:10px;">Many cycles</text>
    </g>
    <g transform="matrix(1,0,0,1,0,-145.944)">
        <path d="M287.495,212.712L287.495,204.8L306.953,216.972L287.495,229.144L287.495,221.232L256.553,221.232L256.553,229.144L256.553,204.8L256.553,212.712L287.495,212.712Z" style="fill:rgb(0,114,189);"/>
    </g>
    <g transform="matrix(1,0,0,1,0,127.797)">
        <path d="M291.903,75.841L291.903,67.93L311.361,80.102L291.903,92.274L291.903,84.362L260.961,84.362L260.961,92.274L260.961,67.93L260.961,75.841L291.903,75.841Z" style="fill:rgb(189,0,3);"/>
    </g>
    <g transform="matrix(-1,0,0,1,703.369,-183.545)">
        <circle cx="351.685" cy="235.772" r="3.43" style="fill:rgb(44,176,34);"/>
    </g>
    <g transform="matrix(-0.973329,0.229412,0.229412,0.973329,643.217,-259.11)">
        <rect x="353.184" y="233.729" width="0.455" height="4.874"/>
    </g>
    <g transform="matrix(-0.97394,0.226808,0.226808,0.97394,641.794,-257.547)">
        <rect x="352.017" y="233.465" width="0.442" height="4.875"/>
    </g>
    <g transform="matrix(-0.97394,0.226808,0.226808,0.97394,639.469,-256.69)">
        <rect x="350.805" y="233.17" width="0.442" height="4.875"/>
    </g>
    <g transform="matrix(-0.973446,0.228915,0.228915,0.973446,636.514,-256.482)">
        <rect x="349.61" y="232.887" width="0.453" height="4.874"/>
    </g>
    <g transform="matrix(0.264191,0.964471,0.964471,-0.264191,67.3197,-206.824)">
        <ellipse cx="357.958" cy="203.292" rx="3.43" ry="3.43" style="fill:rgb(44,176,34);"/>
    </g>
    <g transform="matrix(0.476355,0.879253,0.879253,-0.476355,6.88782,-133.271)">
        <rect x="356.901" y="202.416" width="0.444" height="4.874"/>
    </g>
    <g transform="matrix(0.476355,0.879253,0.879253,-0.476355,8.11561,-133.212)">
        <rect x="357.464" y="201.356" width="0.444" height="4.874"/>
    </g>
    <g transform="matrix(0.478073,0.87832,0.87832,-0.478073,8.96495,-132.49)">
        <rect x="358.064" y="200.265" width="0.454" height="4.874"/>
    </g>
    <g transform="matrix(0.476355,0.879253,0.879253,-0.476355,10.6435,-133.127)">
        <rect x="358.658" y="199.191" width="0.443" height="4.874"/>
    </g>
    <g transform="matrix(-0.523088,-0.852278,-0.852278,0.523088,733.544,262.087)">
        <ellipse cx="359.522" cy="218.192" rx="3.43" ry="3.43" style="fill:rgb(45,225,230);"/>
    </g>
    <g transform="matrix(-0.70488,-0.709327,-0.709327,0.70488,768.925,174.063)">
        <rect x="360.532" y="214.49" width="0.456" height="4.874"/>
    </g>
    <g transform="matrix(-0.703758,-0.71044,-0.71044,0.703758,767.945,172.647)">
        <rect x="359.698" y="215.35" width="0.449" height="4.874"/>
    </g>
    <g transform="matrix(-0.70488,-0.709327,-0.709327,0.70488,767.221,169.876)">
        <rect x="358.809" y="216.229" width="0.456" height="4.874"/>
    </g>
    <g transform="matrix(-0.70488,-0.709327,-0.709327,0.70488,766.361,167.786)">
        <rect x="357.944" y="217.095" width="0.456" height="4.874"/>
    </g>
    <g transform="matrix(-0.731176,0.682188,0.682188,0.731176,472.306,-262.601)">
        <circle cx="344.637" cy="182.242" r="3.43" style="fill:rgb(198,45,230);"/>
    </g>
    <g transform="matrix(-0.557259,0.830339,0.830339,0.557259,385.698,-285.071)">
        <rect x="345.409" y="181.271" width="0.444" height="4.874"/>
    </g>
    <g transform="matrix(-0.555726,0.831366,0.831366,0.555726,384.753,-283.039)">
        <rect x="344.729" y="180.278" width="0.453" height="4.874"/>
    </g>
    <g transform="matrix(-0.555726,0.831366,0.831366,0.555726,384.553,-280.848)">
        <rect x="344.043" y="179.237" width="0.453" height="4.874"/>
    </g>
    <g transform="matrix(-0.555726,0.831366,0.831366,0.555726,384.347,-278.699)">
        <rect x="343.366" y="178.217" width="0.453" height="4.874"/>
    </g>
</svg>
