<?xml version="1.0" encoding="UTF-8" standalone="no"?>
<!DOCTYPE svg PUBLIC "-//W3C//DTD SVG 1.1//EN" "http://www.w3.org/Graphics/SVG/1.1/DTD/svg11.dtd">
<svg width="100%" height="100%" viewBox="0 0 560 420" version="1.1" xmlns="http://www.w3.org/2000/svg" xmlns:xlink="http://www.w3.org/1999/xlink" xml:space="preserve" xmlns:serif="http://www.serif.com/" style="fill-rule:evenodd;clip-rule:evenodd;stroke-linecap:square;stroke-linejoin:round;stroke-miterlimit:10;">
    <g>
        <g>
            <path d="M73,366L507,366" style="fill:none;stroke:rgb(38,38,38);stroke-width:0.5px;"/>
            <path d="M73,31L507,31" style="fill:none;stroke:rgb(38,38,38);stroke-width:0.5px;"/>
            <path d="M73,366L73,361.66" style="fill:none;stroke:rgb(38,38,38);stroke-width:0.5px;"/>
            <path d="M171.636,366L171.636,361.66" style="fill:none;stroke:rgb(38,38,38);stroke-width:0.5px;"/>
            <path d="M270.273,366L270.273,361.66" style="fill:none;stroke:rgb(38,38,38);stroke-width:0.5px;"/>
            <path d="M368.909,366L368.909,361.66" style="fill:none;stroke:rgb(38,38,38);stroke-width:0.5px;"/>
            <path d="M467.546,366L467.546,361.66" style="fill:none;stroke:rgb(38,38,38);stroke-width:0.5px;"/>
            <path d="M73,31L73,35.34" style="fill:none;stroke:rgb(38,38,38);stroke-width:0.5px;"/>
            <path d="M171.636,31L171.636,35.34" style="fill:none;stroke:rgb(38,38,38);stroke-width:0.5px;"/>
            <path d="M270.273,31L270.273,35.34" style="fill:none;stroke:rgb(38,38,38);stroke-width:0.5px;"/>
            <path d="M368.909,31L368.909,35.34" style="fill:none;stroke:rgb(38,38,38);stroke-width:0.5px;"/>
            <path d="M467.546,31L467.546,35.34" style="fill:none;stroke:rgb(38,38,38);stroke-width:0.5px;"/>
            <path d="M92.727,366L92.727,363.83" style="fill:none;stroke:rgb(38,38,38);stroke-width:0.5px;"/>
            <path d="M112.455,366L112.455,363.83" style="fill:none;stroke:rgb(38,38,38);stroke-width:0.5px;"/>
            <path d="M132.182,366L132.182,363.83" style="fill:none;stroke:rgb(38,38,38);stroke-width:0.5px;"/>
            <path d="M151.909,366L151.909,363.83" style="fill:none;stroke:rgb(38,38,38);stroke-width:0.5px;"/>
            <path d="M191.364,366L191.364,363.83" style="fill:none;stroke:rgb(38,38,38);stroke-width:0.5px;"/>
            <path d="M211.091,366L211.091,363.83" style="fill:none;stroke:rgb(38,38,38);stroke-width:0.5px;"/>
            <path d="M230.818,366L230.818,363.83" style="fill:none;stroke:rgb(38,38,38);stroke-width:0.5px;"/>
            <path d="M250.546,366L250.546,363.83" style="fill:none;stroke:rgb(38,38,38);stroke-width:0.5px;"/>
            <path d="M290,366L290,363.83" style="fill:none;stroke:rgb(38,38,38);stroke-width:0.5px;"/>
            <path d="M309.727,366L309.727,363.83" style="fill:none;stroke:rgb(38,38,38);stroke-width:0.5px;"/>
            <path d="M329.455,366L329.455,363.83" style="fill:none;stroke:rgb(38,38,38);stroke-width:0.5px;"/>
            <path d="M349.182,366L349.182,363.83" style="fill:none;stroke:rgb(38,38,38);stroke-width:0.5px;"/>
            <path d="M388.636,366L388.636,363.83" style="fill:none;stroke:rgb(38,38,38);stroke-width:0.5px;"/>
            <path d="M408.364,366L408.364,363.83" style="fill:none;stroke:rgb(38,38,38);stroke-width:0.5px;"/>
            <path d="M428.091,366L428.091,363.83" style="fill:none;stroke:rgb(38,38,38);stroke-width:0.5px;"/>
            <path d="M447.818,366L447.818,363.83" style="fill:none;stroke:rgb(38,38,38);stroke-width:0.5px;"/>
            <path d="M487.273,366L487.273,363.83" style="fill:none;stroke:rgb(38,38,38);stroke-width:0.5px;"/>
            <path d="M507,366L507,363.83" style="fill:none;stroke:rgb(38,38,38);stroke-width:0.5px;"/>
            <path d="M92.727,31L92.727,33.17" style="fill:none;stroke:rgb(38,38,38);stroke-width:0.5px;"/>
            <path d="M112.455,31L112.455,33.17" style="fill:none;stroke:rgb(38,38,38);stroke-width:0.5px;"/>
            <path d="M132.182,31L132.182,33.17" style="fill:none;stroke:rgb(38,38,38);stroke-width:0.5px;"/>
            <path d="M151.909,31L151.909,33.17" style="fill:none;stroke:rgb(38,38,38);stroke-width:0.5px;"/>
            <path d="M191.364,31L191.364,33.17" style="fill:none;stroke:rgb(38,38,38);stroke-width:0.5px;"/>
            <path d="M211.091,31L211.091,33.17" style="fill:none;stroke:rgb(38,38,38);stroke-width:0.5px;"/>
            <path d="M230.818,31L230.818,33.17" style="fill:none;stroke:rgb(38,38,38);stroke-width:0.5px;"/>
            <path d="M250.546,31L250.546,33.17" style="fill:none;stroke:rgb(38,38,38);stroke-width:0.5px;"/>
            <path d="M290,31L290,33.17" style="fill:none;stroke:rgb(38,38,38);stroke-width:0.5px;"/>
            <path d="M309.727,31L309.727,33.17" style="fill:none;stroke:rgb(38,38,38);stroke-width:0.5px;"/>
            <path d="M329.455,31L329.455,33.17" style="fill:none;stroke:rgb(38,38,38);stroke-width:0.5px;"/>
            <path d="M349.182,31L349.182,33.17" style="fill:none;stroke:rgb(38,38,38);stroke-width:0.5px;"/>
            <path d="M388.636,31L388.636,33.17" style="fill:none;stroke:rgb(38,38,38);stroke-width:0.5px;"/>
            <path d="M408.364,31L408.364,33.17" style="fill:none;stroke:rgb(38,38,38);stroke-width:0.5px;"/>
            <path d="M428.091,31L428.091,33.17" style="fill:none;stroke:rgb(38,38,38);stroke-width:0.5px;"/>
            <path d="M447.818,31L447.818,33.17" style="fill:none;stroke:rgb(38,38,38);stroke-width:0.5px;"/>
            <path d="M487.273,31L487.273,33.17" style="fill:none;stroke:rgb(38,38,38);stroke-width:0.5px;"/>
            <path d="M507,31L507,33.17" style="fill:none;stroke:rgb(38,38,38);stroke-width:0.5px;"/>
        </g>
        <g transform="matrix(1,0,0,1,67.5,389.6)">
            <text x="0px" y="0px" style="font-family:'HelveticaNeue', 'Helvetica Neue';font-size:18px;fill:rgb(38,38,38);">0</text>
        </g>
        <g transform="matrix(1,0,0,1,153.636,389.6)">
            <text x="0px" y="0px" style="font-family:'HelveticaNeue', 'Helvetica Neue';font-size:18px;fill:rgb(38,38,38);">0.05</text>
        </g>
        <g transform="matrix(1,0,0,1,257.273,389.6)">
            <text x="0px" y="0px" style="font-family:'HelveticaNeue', 'Helvetica Neue';font-size:18px;fill:rgb(38,38,38);">0.1</text>
        </g>
        <g transform="matrix(1,0,0,1,350.909,389.6)">
            <text x="0px" y="0px" style="font-family:'HelveticaNeue', 'Helvetica Neue';font-size:18px;fill:rgb(38,38,38);">0.15</text>
        </g>
        <g transform="matrix(1,0,0,1,454.546,389.6)">
            <text x="0px" y="0px" style="font-family:'HelveticaNeue', 'Helvetica Neue';font-size:18px;fill:rgb(38,38,38);">0.2</text>
        </g>
        <g transform="matrix(1,0,0,1,223,415)">
            <text x="0px" y="0px" style="font-family:'HelveticaNeue', 'Helvetica Neue';font-size:20px;fill:rgb(38,38,38);">Nominal C rate</text>
        </g>
        <g>
            <path d="M73,366L73,31" style="fill:none;stroke:rgb(38,38,38);stroke-width:0.5px;"/>
            <path d="M507,366L507,31" style="fill:none;stroke:rgb(38,38,38);stroke-width:0.5px;"/>
            <path d="M73,366L77.34,366" style="fill:none;stroke:rgb(38,38,38);stroke-width:0.5px;"/>
            <path d="M73,310.167L77.34,310.167" style="fill:none;stroke:rgb(38,38,38);stroke-width:0.5px;"/>
            <path d="M73,254.333L77.34,254.333" style="fill:none;stroke:rgb(38,38,38);stroke-width:0.5px;"/>
            <path d="M73,198.5L77.34,198.5" style="fill:none;stroke:rgb(38,38,38);stroke-width:0.5px;"/>
            <path d="M73,142.667L77.34,142.667" style="fill:none;stroke:rgb(38,38,38);stroke-width:0.5px;"/>
            <path d="M73,86.833L77.34,86.833" style="fill:none;stroke:rgb(38,38,38);stroke-width:0.5px;"/>
            <path d="M73,31L77.34,31" style="fill:none;stroke:rgb(38,38,38);stroke-width:0.5px;"/>
            <path d="M507,366L502.66,366" style="fill:none;stroke:rgb(38,38,38);stroke-width:0.5px;"/>
            <path d="M507,310.167L502.66,310.167" style="fill:none;stroke:rgb(38,38,38);stroke-width:0.5px;"/>
            <path d="M507,254.333L502.66,254.333" style="fill:none;stroke:rgb(38,38,38);stroke-width:0.5px;"/>
            <path d="M507,198.5L502.66,198.5" style="fill:none;stroke:rgb(38,38,38);stroke-width:0.5px;"/>
            <path d="M507,142.667L502.66,142.667" style="fill:none;stroke:rgb(38,38,38);stroke-width:0.5px;"/>
            <path d="M507,86.833L502.66,86.833" style="fill:none;stroke:rgb(38,38,38);stroke-width:0.5px;"/>
            <path d="M507,31L502.66,31" style="fill:none;stroke:rgb(38,38,38);stroke-width:0.5px;"/>
            <path d="M73,354.833L75.17,354.833" style="fill:none;stroke:rgb(38,38,38);stroke-width:0.5px;"/>
            <path d="M73,343.667L75.17,343.667" style="fill:none;stroke:rgb(38,38,38);stroke-width:0.5px;"/>
            <path d="M73,332.5L75.17,332.5" style="fill:none;stroke:rgb(38,38,38);stroke-width:0.5px;"/>
            <path d="M73,321.333L75.17,321.333" style="fill:none;stroke:rgb(38,38,38);stroke-width:0.5px;"/>
            <path d="M73,299L75.17,299" style="fill:none;stroke:rgb(38,38,38);stroke-width:0.5px;"/>
            <path d="M73,287.833L75.17,287.833" style="fill:none;stroke:rgb(38,38,38);stroke-width:0.5px;"/>
            <path d="M73,276.667L75.17,276.667" style="fill:none;stroke:rgb(38,38,38);stroke-width:0.5px;"/>
            <path d="M73,265.5L75.17,265.5" style="fill:none;stroke:rgb(38,38,38);stroke-width:0.5px;"/>
            <path d="M73,243.167L75.17,243.167" style="fill:none;stroke:rgb(38,38,38);stroke-width:0.5px;"/>
            <path d="M73,232L75.17,232" style="fill:none;stroke:rgb(38,38,38);stroke-width:0.5px;"/>
            <path d="M73,220.833L75.17,220.833" style="fill:none;stroke:rgb(38,38,38);stroke-width:0.5px;"/>
            <path d="M73,209.667L75.17,209.667" style="fill:none;stroke:rgb(38,38,38);stroke-width:0.5px;"/>
            <path d="M73,187.333L75.17,187.333" style="fill:none;stroke:rgb(38,38,38);stroke-width:0.5px;"/>
            <path d="M73,176.167L75.17,176.167" style="fill:none;stroke:rgb(38,38,38);stroke-width:0.5px;"/>
            <path d="M73,165L75.17,165" style="fill:none;stroke:rgb(38,38,38);stroke-width:0.5px;"/>
            <path d="M73,153.833L75.17,153.833" style="fill:none;stroke:rgb(38,38,38);stroke-width:0.5px;"/>
            <path d="M73,131.5L75.17,131.5" style="fill:none;stroke:rgb(38,38,38);stroke-width:0.5px;"/>
            <path d="M73,120.333L75.17,120.333" style="fill:none;stroke:rgb(38,38,38);stroke-width:0.5px;"/>
            <path d="M73,109.167L75.17,109.167" style="fill:none;stroke:rgb(38,38,38);stroke-width:0.5px;"/>
            <path d="M73,98L75.17,98" style="fill:none;stroke:rgb(38,38,38);stroke-width:0.5px;"/>
            <path d="M73,75.667L75.17,75.667" style="fill:none;stroke:rgb(38,38,38);stroke-width:0.5px;"/>
            <path d="M73,64.5L75.17,64.5" style="fill:none;stroke:rgb(38,38,38);stroke-width:0.5px;"/>
            <path d="M73,53.333L75.17,53.333" style="fill:none;stroke:rgb(38,38,38);stroke-width:0.5px;"/>
            <path d="M73,42.167L75.17,42.167" style="fill:none;stroke:rgb(38,38,38);stroke-width:0.5px;"/>
            <path d="M507,354.833L504.83,354.833" style="fill:none;stroke:rgb(38,38,38);stroke-width:0.5px;"/>
            <path d="M507,343.667L504.83,343.667" style="fill:none;stroke:rgb(38,38,38);stroke-width:0.5px;"/>
            <path d="M507,332.5L504.83,332.5" style="fill:none;stroke:rgb(38,38,38);stroke-width:0.5px;"/>
            <path d="M507,321.333L504.83,321.333" style="fill:none;stroke:rgb(38,38,38);stroke-width:0.5px;"/>
            <path d="M507,299L504.83,299" style="fill:none;stroke:rgb(38,38,38);stroke-width:0.5px;"/>
            <path d="M507,287.833L504.83,287.833" style="fill:none;stroke:rgb(38,38,38);stroke-width:0.5px;"/>
            <path d="M507,276.667L504.83,276.667" style="fill:none;stroke:rgb(38,38,38);stroke-width:0.5px;"/>
            <path d="M507,265.5L504.83,265.5" style="fill:none;stroke:rgb(38,38,38);stroke-width:0.5px;"/>
            <path d="M507,243.167L504.83,243.167" style="fill:none;stroke:rgb(38,38,38);stroke-width:0.5px;"/>
            <path d="M507,232L504.83,232" style="fill:none;stroke:rgb(38,38,38);stroke-width:0.5px;"/>
            <path d="M507,220.833L504.83,220.833" style="fill:none;stroke:rgb(38,38,38);stroke-width:0.5px;"/>
            <path d="M507,209.667L504.83,209.667" style="fill:none;stroke:rgb(38,38,38);stroke-width:0.5px;"/>
            <path d="M507,187.333L504.83,187.333" style="fill:none;stroke:rgb(38,38,38);stroke-width:0.5px;"/>
            <path d="M507,176.167L504.83,176.167" style="fill:none;stroke:rgb(38,38,38);stroke-width:0.5px;"/>
            <path d="M507,165L504.83,165" style="fill:none;stroke:rgb(38,38,38);stroke-width:0.5px;"/>
            <path d="M507,153.833L504.83,153.833" style="fill:none;stroke:rgb(38,38,38);stroke-width:0.5px;"/>
            <path d="M507,131.5L504.83,131.5" style="fill:none;stroke:rgb(38,38,38);stroke-width:0.5px;"/>
            <path d="M507,120.333L504.83,120.333" style="fill:none;stroke:rgb(38,38,38);stroke-width:0.5px;"/>
            <path d="M507,109.167L504.83,109.167" style="fill:none;stroke:rgb(38,38,38);stroke-width:0.5px;"/>
            <path d="M507,98L504.83,98" style="fill:none;stroke:rgb(38,38,38);stroke-width:0.5px;"/>
            <path d="M507,75.667L504.83,75.667" style="fill:none;stroke:rgb(38,38,38);stroke-width:0.5px;"/>
            <path d="M507,64.5L504.83,64.5" style="fill:none;stroke:rgb(38,38,38);stroke-width:0.5px;"/>
            <path d="M507,53.333L504.83,53.333" style="fill:none;stroke:rgb(38,38,38);stroke-width:0.5px;"/>
            <path d="M507,42.167L504.83,42.167" style="fill:none;stroke:rgb(38,38,38);stroke-width:0.5px;"/>
        </g>
        <g transform="matrix(1,0,0,1,49.4,373)">
            <text x="0px" y="0px" style="font-family:'HelveticaNeue', 'Helvetica Neue';font-size:18px;fill:rgb(38,38,38);">-1</text>
        </g>
        <g transform="matrix(1,0,0,1,56.4,317.167)">
            <text x="0px" y="0px" style="font-family:'HelveticaNeue', 'Helvetica Neue';font-size:18px;fill:rgb(38,38,38);">0</text>
        </g>
        <g transform="matrix(1,0,0,1,56.4,261.333)">
            <text x="0px" y="0px" style="font-family:'HelveticaNeue', 'Helvetica Neue';font-size:18px;fill:rgb(38,38,38);">1</text>
        </g>
        <g transform="matrix(1,0,0,1,56.4,205.5)">
            <text x="0px" y="0px" style="font-family:'HelveticaNeue', 'Helvetica Neue';font-size:18px;fill:rgb(38,38,38);">2</text>
        </g>
        <g transform="matrix(1,0,0,1,56.4,149.667)">
            <text x="0px" y="0px" style="font-family:'HelveticaNeue', 'Helvetica Neue';font-size:18px;fill:rgb(38,38,38);">3</text>
        </g>
        <g transform="matrix(1,0,0,1,56.4,93.8333)">
            <text x="0px" y="0px" style="font-family:'HelveticaNeue', 'Helvetica Neue';font-size:18px;fill:rgb(38,38,38);">4</text>
        </g>
        <g transform="matrix(1,0,0,1,56.4,38)">
            <text x="0px" y="0px" style="font-family:'HelveticaNeue', 'Helvetica Neue';font-size:18px;fill:rgb(38,38,38);">5</text>
        </g>
        <g transform="matrix(-3.82857e-16,-1,1,-3.82857e-16,41.4,348)">
            <text x="0px" y="0px" style="font-family:'HelveticaNeue', 'Helvetica Neue';font-size:20px;fill:rgb(38,38,38);">A<tspan x="12.6px 22.6px " y="0px 0px ">ve</tspan>rage SEI gr<tspan x="132.22px 143.7px " y="0px 0px ">ow</tspan>th rate (mA g</text>
            <text x="274.08px" y="-6.66px" style="font-family:'HelveticaNeue', 'Helvetica Neue';font-size:11.66px;fill:rgb(38,38,38);">-1</text>
            <text x="285.099px" y="0px" style="font-family:'HelveticaNeue', 'Helvetica Neue';font-size:20px;fill:rgb(38,38,38);">)</text>
        </g>
        <g>
            <path d="M92.727,280.195L92.727,281.339" style="fill:none;stroke:rgb(0,114,189);stroke-width:3px;stroke-linecap:butt;"/>
            <path d="M112.455,258.924L112.455,262.442" style="fill:none;stroke:rgb(0,114,189);stroke-width:3px;stroke-linecap:butt;"/>
            <path d="M171.636,216.79L171.636,220.395" style="fill:none;stroke:rgb(0,114,189);stroke-width:3px;stroke-linecap:butt;"/>
            <path d="M270.273,161.389L270.273,165.067" style="fill:none;stroke:rgb(0,114,189);stroke-width:3px;stroke-linecap:butt;"/>
            <path d="M467.546,51.051L467.546,65.567" style="fill:none;stroke:rgb(0,114,189);stroke-width:3px;stroke-linecap:butt;"/>
            <path d="M92.727,280.195L92.727,279.051" style="fill:none;stroke:rgb(0,114,189);stroke-width:3px;stroke-linecap:butt;"/>
            <path d="M112.455,258.924L112.455,255.407" style="fill:none;stroke:rgb(0,114,189);stroke-width:3px;stroke-linecap:butt;"/>
            <path d="M171.636,216.79L171.636,213.184" style="fill:none;stroke:rgb(0,114,189);stroke-width:3px;stroke-linecap:butt;"/>
            <path d="M270.273,161.389L270.273,157.711" style="fill:none;stroke:rgb(0,114,189);stroke-width:3px;stroke-linecap:butt;"/>
            <path d="M467.546,51.051L467.546,36.535" style="fill:none;stroke:rgb(0,114,189);stroke-width:3px;stroke-linecap:butt;"/>
            <g transform="matrix(1,0,0,1,92.7273,280.195)">
                <rect x="-5" y="-5" width="10" height="10" style="fill:none;stroke:rgb(0,114,189);stroke-width:3px;stroke-linecap:butt;stroke-linejoin:miter;"/>
            </g>
            <g transform="matrix(1,0,0,1,112.454,258.924)">
                <rect x="-5" y="-5" width="10" height="10" style="fill:none;stroke:rgb(0,114,189);stroke-width:3px;stroke-linecap:butt;stroke-linejoin:miter;"/>
            </g>
            <g transform="matrix(1,0,0,1,171.636,216.79)">
                <rect x="-5" y="-5" width="10" height="10" style="fill:none;stroke:rgb(0,114,189);stroke-width:3px;stroke-linecap:butt;stroke-linejoin:miter;"/>
            </g>
            <g transform="matrix(1,0,0,1,270.273,161.389)">
                <rect x="-5" y="-5" width="10" height="10" style="fill:none;stroke:rgb(0,114,189);stroke-width:3px;stroke-linecap:butt;stroke-linejoin:miter;"/>
            </g>
            <g transform="matrix(1,0,0,1,467.546,51.0513)">
                <rect x="-5" y="-5" width="10" height="10" style="fill:none;stroke:rgb(0,114,189);stroke-width:3px;stroke-linecap:butt;stroke-linejoin:miter;"/>
            </g>
        </g>
        <g transform="matrix(1,0,0,1,92.7273,281.339)">
            <path d="M-3,0L3,0" style="fill:rgb(0,114,189);fill-rule:nonzero;"/>
        </g>
        <g transform="matrix(1,0,0,1,92.7273,281.339)">
            <path d="M-3,0L3,0" style="fill:none;stroke:rgb(0,114,189);stroke-width:3px;stroke-linecap:butt;stroke-linejoin:miter;"/>
        </g>
        <g transform="matrix(1,0,0,1,112.454,262.442)">
            <path d="M-3,0L3,0" style="fill:rgb(0,114,189);fill-rule:nonzero;"/>
        </g>
        <g transform="matrix(1,0,0,1,112.454,262.442)">
            <path d="M-3,0L3,0" style="fill:none;stroke:rgb(0,114,189);stroke-width:3px;stroke-linecap:butt;stroke-linejoin:miter;"/>
        </g>
        <g transform="matrix(1,0,0,1,171.636,220.395)">
            <path d="M-3,0L3,0" style="fill:rgb(0,114,189);fill-rule:nonzero;"/>
        </g>
        <g transform="matrix(1,0,0,1,171.636,220.395)">
            <path d="M-3,0L3,0" style="fill:none;stroke:rgb(0,114,189);stroke-width:3px;stroke-linecap:butt;stroke-linejoin:miter;"/>
        </g>
        <g transform="matrix(1,0,0,1,270.273,165.067)">
            <path d="M-3,0L3,0" style="fill:rgb(0,114,189);fill-rule:nonzero;"/>
        </g>
        <g transform="matrix(1,0,0,1,270.273,165.067)">
            <path d="M-3,0L3,0" style="fill:none;stroke:rgb(0,114,189);stroke-width:3px;stroke-linecap:butt;stroke-linejoin:miter;"/>
        </g>
        <g transform="matrix(1,0,0,1,467.546,65.5674)">
            <path d="M-3,0L3,0" style="fill:rgb(0,114,189);fill-rule:nonzero;"/>
        </g>
        <g transform="matrix(1,0,0,1,467.546,65.5674)">
            <path d="M-3,0L3,0" style="fill:none;stroke:rgb(0,114,189);stroke-width:3px;stroke-linecap:butt;stroke-linejoin:miter;"/>
        </g>
        <g transform="matrix(1,0,0,1,92.7273,279.051)">
            <path d="M-3,0L3,0" style="fill:rgb(0,114,189);fill-rule:nonzero;"/>
        </g>
        <g transform="matrix(1,0,0,1,92.7273,279.051)">
            <path d="M-3,0L3,0" style="fill:none;stroke:rgb(0,114,189);stroke-width:3px;stroke-linecap:butt;stroke-linejoin:miter;"/>
        </g>
        <g transform="matrix(1,0,0,1,112.454,255.406)">
            <path d="M-3,0L3,0" style="fill:rgb(0,114,189);fill-rule:nonzero;"/>
        </g>
        <g transform="matrix(1,0,0,1,112.454,255.406)">
            <path d="M-3,0L3,0" style="fill:none;stroke:rgb(0,114,189);stroke-width:3px;stroke-linecap:butt;stroke-linejoin:miter;"/>
        </g>
        <g transform="matrix(1,0,0,1,171.636,213.184)">
            <path d="M-3,0L3,0" style="fill:rgb(0,114,189);fill-rule:nonzero;"/>
        </g>
        <g transform="matrix(1,0,0,1,171.636,213.184)">
            <path d="M-3,0L3,0" style="fill:none;stroke:rgb(0,114,189);stroke-width:3px;stroke-linecap:butt;stroke-linejoin:miter;"/>
        </g>
        <g transform="matrix(1,0,0,1,270.273,157.711)">
            <path d="M-3,0L3,0" style="fill:rgb(0,114,189);fill-rule:nonzero;"/>
        </g>
        <g transform="matrix(1,0,0,1,270.273,157.711)">
            <path d="M-3,0L3,0" style="fill:none;stroke:rgb(0,114,189);stroke-width:3px;stroke-linecap:butt;stroke-linejoin:miter;"/>
        </g>
        <g transform="matrix(1,0,0,1,467.546,36.5354)">
            <path d="M-3,0L3,0" style="fill:rgb(0,114,189);fill-rule:nonzero;"/>
        </g>
        <g transform="matrix(1,0,0,1,467.546,36.5354)">
            <path d="M-3,0L3,0" style="fill:none;stroke:rgb(0,114,189);stroke-width:3px;stroke-linecap:butt;stroke-linejoin:miter;"/>
            <g transform="matrix(1,0,0,1,-467.546,-36.5354)">
                <path d="M92.727,307.87L92.727,308.278" style="fill:none;stroke:rgb(217,83,25);stroke-width:3px;stroke-linecap:butt;"/>
            </g>
            <g transform="matrix(1,0,0,1,-467.546,-36.5354)">
                <path d="M112.455,305.787L112.455,307.656" style="fill:none;stroke:rgb(217,83,25);stroke-width:3px;stroke-linecap:butt;"/>
            </g>
            <g transform="matrix(1,0,0,1,-467.546,-36.5354)">
                <path d="M171.636,304.485L171.636,307.845" style="fill:none;stroke:rgb(217,83,25);stroke-width:3px;stroke-linecap:butt;"/>
            </g>
            <g transform="matrix(1,0,0,1,-467.546,-36.5354)">
                <path d="M270.273,303.438L270.273,305.583" style="fill:none;stroke:rgb(217,83,25);stroke-width:3px;stroke-linecap:butt;"/>
            </g>
            <g transform="matrix(1,0,0,1,-467.546,-36.5354)">
                <path d="M467.546,313.844L467.546,335.936" style="fill:none;stroke:rgb(217,83,25);stroke-width:3px;stroke-linecap:butt;"/>
            </g>
            <g transform="matrix(1,0,0,1,-467.546,-36.5354)">
                <path d="M92.727,307.87L92.727,307.463" style="fill:none;stroke:rgb(217,83,25);stroke-width:3px;stroke-linecap:butt;"/>
            </g>
            <g transform="matrix(1,0,0,1,-467.546,-36.5354)">
                <path d="M112.455,305.787L112.455,303.918" style="fill:none;stroke:rgb(217,83,25);stroke-width:3px;stroke-linecap:butt;"/>
            </g>
            <g transform="matrix(1,0,0,1,-467.546,-36.5354)">
                <path d="M171.636,304.485L171.636,301.125" style="fill:none;stroke:rgb(217,83,25);stroke-width:3px;stroke-linecap:butt;"/>
            </g>
            <g transform="matrix(1,0,0,1,-467.546,-36.5354)">
                <path d="M270.273,303.438L270.273,301.293" style="fill:none;stroke:rgb(217,83,25);stroke-width:3px;stroke-linecap:butt;"/>
            </g>
            <g transform="matrix(1,0,0,1,-467.546,-36.5354)">
                <path d="M467.546,313.844L467.546,291.752" style="fill:none;stroke:rgb(217,83,25);stroke-width:3px;stroke-linecap:butt;"/>
            </g>
            <g transform="matrix(1,0,0,1,-374.818,271.335)">
                <rect x="-5" y="-5" width="10" height="10" style="fill:none;stroke:rgb(217,83,25);stroke-width:3px;stroke-linecap:butt;stroke-linejoin:miter;"/>
            </g>
            <g transform="matrix(1,0,0,1,-355.091,269.251)">
                <rect x="-5" y="-5" width="10" height="10" style="fill:none;stroke:rgb(217,83,25);stroke-width:3px;stroke-linecap:butt;stroke-linejoin:miter;"/>
            </g>
            <g transform="matrix(1,0,0,1,-295.909,267.95)">
                <rect x="-5" y="-5" width="10" height="10" style="fill:none;stroke:rgb(217,83,25);stroke-width:3px;stroke-linecap:butt;stroke-linejoin:miter;"/>
            </g>
            <g transform="matrix(1,0,0,1,-197.273,266.903)">
                <rect x="-5" y="-5" width="10" height="10" style="fill:none;stroke:rgb(217,83,25);stroke-width:3px;stroke-linecap:butt;stroke-linejoin:miter;"/>
            </g>
            <g transform="matrix(1,0,0,1,0,277.309)">
                <rect x="-5" y="-5" width="10" height="10" style="fill:none;stroke:rgb(217,83,25);stroke-width:3px;stroke-linecap:butt;stroke-linejoin:miter;"/>
            </g>
        </g>
        <g transform="matrix(1,0,0,1,92.7273,308.278)">
            <path d="M-3,0L3,0" style="fill:rgb(217,83,25);fill-rule:nonzero;"/>
        </g>
        <g transform="matrix(1,0,0,1,92.7273,308.278)">
            <path d="M-3,0L3,0" style="fill:none;stroke:rgb(217,83,25);stroke-width:3px;stroke-linecap:butt;stroke-linejoin:miter;"/>
        </g>
        <g transform="matrix(1,0,0,1,112.454,307.656)">
            <path d="M-3,0L3,0" style="fill:rgb(217,83,25);fill-rule:nonzero;"/>
        </g>
        <g transform="matrix(1,0,0,1,112.454,307.656)">
            <path d="M-3,0L3,0" style="fill:none;stroke:rgb(217,83,25);stroke-width:3px;stroke-linecap:butt;stroke-linejoin:miter;"/>
        </g>
        <g transform="matrix(1,0,0,1,171.636,307.845)">
            <path d="M-3,0L3,0" style="fill:rgb(217,83,25);fill-rule:nonzero;"/>
        </g>
        <g transform="matrix(1,0,0,1,171.636,307.845)">
            <path d="M-3,0L3,0" style="fill:none;stroke:rgb(217,83,25);stroke-width:3px;stroke-linecap:butt;stroke-linejoin:miter;"/>
        </g>
        <g transform="matrix(1,0,0,1,270.273,305.583)">
            <path d="M-3,0L3,0" style="fill:rgb(217,83,25);fill-rule:nonzero;"/>
        </g>
        <g transform="matrix(1,0,0,1,270.273,305.583)">
            <path d="M-3,0L3,0" style="fill:none;stroke:rgb(217,83,25);stroke-width:3px;stroke-linecap:butt;stroke-linejoin:miter;"/>
        </g>
        <g transform="matrix(1,0,0,1,467.546,335.936)">
            <path d="M-3,0L3,0" style="fill:rgb(217,83,25);fill-rule:nonzero;"/>
        </g>
        <g transform="matrix(1,0,0,1,467.546,335.936)">
            <path d="M-3,0L3,0" style="fill:none;stroke:rgb(217,83,25);stroke-width:3px;stroke-linecap:butt;stroke-linejoin:miter;"/>
        </g>
        <g transform="matrix(1,0,0,1,92.7273,307.463)">
            <path d="M-3,0L3,0" style="fill:rgb(217,83,25);fill-rule:nonzero;"/>
        </g>
        <g transform="matrix(1,0,0,1,92.7273,307.463)">
            <path d="M-3,0L3,0" style="fill:none;stroke:rgb(217,83,25);stroke-width:3px;stroke-linecap:butt;stroke-linejoin:miter;"/>
        </g>
        <g transform="matrix(1,0,0,1,112.454,303.918)">
            <path d="M-3,0L3,0" style="fill:rgb(217,83,25);fill-rule:nonzero;"/>
        </g>
        <g transform="matrix(1,0,0,1,112.454,303.918)">
            <path d="M-3,0L3,0" style="fill:none;stroke:rgb(217,83,25);stroke-width:3px;stroke-linecap:butt;stroke-linejoin:miter;"/>
        </g>
        <g transform="matrix(1,0,0,1,171.636,301.125)">
            <path d="M-3,0L3,0" style="fill:rgb(217,83,25);fill-rule:nonzero;"/>
        </g>
        <g transform="matrix(1,0,0,1,171.636,301.125)">
            <path d="M-3,0L3,0" style="fill:none;stroke:rgb(217,83,25);stroke-width:3px;stroke-linecap:butt;stroke-linejoin:miter;"/>
        </g>
        <g transform="matrix(1,0,0,1,270.273,301.293)">
            <path d="M-3,0L3,0" style="fill:rgb(217,83,25);fill-rule:nonzero;"/>
        </g>
        <g transform="matrix(1,0,0,1,270.273,301.293)">
            <path d="M-3,0L3,0" style="fill:none;stroke:rgb(217,83,25);stroke-width:3px;stroke-linecap:butt;stroke-linejoin:miter;"/>
        </g>
        <g transform="matrix(1,0,0,1,467.546,291.752)">
            <path d="M-3,0L3,0" style="fill:rgb(217,83,25);fill-rule:nonzero;"/>
        </g>
        <g transform="matrix(1,0,0,1,467.546,291.752)">
            <path d="M-3,0L3,0" style="fill:none;stroke:rgb(217,83,25);stroke-width:3px;stroke-linecap:butt;stroke-linejoin:miter;"/>
        </g>
        <path d="M73,310.167L507,310.167" style="fill:none;stroke:black;stroke-width:2px;stroke-linecap:butt;stroke-linejoin:bevel;stroke-miterlimit:1;stroke-dasharray:2,2;"/>
        <g transform="matrix(1,0,0,1,120,60.866)">
            <text x="0px" y="0px" style="font-family:'HelveticaNeue', 'Helvetica Neue';font-size:18px;">Lithiation (char<tspan x="117.846px 128.178px " y="0px 0px ">gi</tspan>ng)</text>
        </g>
        <g transform="matrix(1,0,0,1,102,62.3278)">
            <path d="M-3,0L3,0" style="fill:rgb(0,114,189);fill-rule:nonzero;"/>
        </g>
        <g transform="matrix(1,0,0,1,102,62.3278)">
            <path d="M-3,0L3,0" style="fill:none;stroke:rgb(0,114,189);stroke-width:2px;stroke-linecap:butt;stroke-linejoin:miter;"/>
        </g>
        <g transform="matrix(1,0,0,1,102,45.4041)">
            <path d="M-3,0L3,0" style="fill:rgb(0,114,189);fill-rule:nonzero;"/>
        </g>
        <g transform="matrix(1,0,0,1,102,45.4041)">
            <path d="M-3,0L3,0" style="fill:none;stroke:rgb(0,114,189);stroke-width:2px;stroke-linecap:butt;stroke-linejoin:miter;"/>
            <g transform="matrix(1,0,0,1,-102,-45.4041)">
                <path d="M102,62.328L102,45.404" style="fill:none;stroke:rgb(0,114,189);stroke-width:2px;stroke-linecap:butt;"/>
            </g>
            <g transform="matrix(1,0,0,1,0,8.4619)">
                <rect x="-2" y="-2" width="4" height="4" style="fill:none;stroke:rgb(0,114,189);stroke-width:2px;stroke-linecap:butt;stroke-linejoin:miter;"/>
            </g>
        </g>
        <g transform="matrix(1,0,0,1,120,83.134)">
            <text x="0px" y="0px" style="font-family:'HelveticaNeue', 'Helvetica Neue';font-size:18px;">Delithiation (dischar<tspan x="157.842px 168.174px " y="0px 0px ">gi</tspan>ng)</text>
        </g>
        <g transform="matrix(1,0,0,1,102,84.5959)">
            <path d="M-3,0L3,0" style="fill:rgb(217,83,25);fill-rule:nonzero;"/>
        </g>
        <g transform="matrix(1,0,0,1,102,84.5959)">
            <path d="M-3,0L3,0" style="fill:none;stroke:rgb(217,83,25);stroke-width:2px;stroke-linecap:butt;stroke-linejoin:miter;"/>
        </g>
        <g transform="matrix(1,0,0,1,102,67.6722)">
            <path d="M-3,0L3,0" style="fill:rgb(217,83,25);fill-rule:nonzero;"/>
        </g>
        <g transform="matrix(1,0,0,1,102,67.6722)">
            <path d="M-3,0L3,0" style="fill:none;stroke:rgb(217,83,25);stroke-width:2px;stroke-linecap:butt;stroke-linejoin:miter;"/>
            <g transform="matrix(1,0,0,1,-102,-67.6722)">
                <path d="M102,84.596L102,67.672" style="fill:none;stroke:rgb(217,83,25);stroke-width:2px;stroke-linecap:butt;"/>
            </g>
            <g transform="matrix(1,0,0,1,0,8.4619)">
                <rect x="-2" y="-2" width="4" height="4" style="fill:none;stroke:rgb(217,83,25);stroke-width:2px;stroke-linecap:butt;stroke-linejoin:miter;"/>
            </g>
        </g>
    </g>
</svg>
